<svg width="12" height="13" fill="none" xmlns="http://www.w3.org/2000/svg"><path d="M11.166 10.01l-1.263-.84-1.122-.745a.498.498 0 00-.667.108l-.695.89a.496.496 0 01-.631.13c-.471-.26-1.029-.507-2.258-1.734C3.3 6.592 3.052 6.038 2.79 5.568a.492.492 0 01.131-.63l.893-.692a.495.495 0 00.108-.666l-.725-1.084-.864-1.293a.498.498 0 00-.67-.15l-.997.596c-.27.159-.467.414-.553.714-.273.991-.328 3.178 3.187 6.682 3.515 3.505 5.708 3.45 6.702 3.178.3-.085.557-.283.716-.552l.598-.994a.495.495 0 00-.15-.667z" fill="#CA0100"/></svg>