<svg width="17" height="20" fill="none" xmlns="http://www.w3.org/2000/svg"><path d="M5.848 0v1.668h1.668v.835a5.593 5.593 0 011.668 0v-.835h1.669V0H5.848z" fill="#262626"/><path d="M14.02 5.506l.585-.584.667.667 1.168-1.168-2.503-2.502-1.167 1.168.667.667-.75.75C8.681 2.087 3.51 3.338 1.174 7.342-1.161 11.345.09 16.35 4.01 18.769c3.92 2.42 9.092 1.168 11.428-2.836 2.085-3.42 1.502-7.758-1.418-10.427zM8.349 17.434a5.803 5.803 0 01-5.839-5.839 5.803 5.803 0 015.84-5.84v5.84h5.839a5.803 5.803 0 01-5.84 5.84z" fill="#262626"/></svg>