<svg width="17" height="19" fill="none" xmlns="http://www.w3.org/2000/svg"><path d="M16.248 4.465l.015-.016L12.425.528l-1.092 1.119 2.174 2.227a2.634 2.634 0 00-1.659 2.46c0 1.456 1.154 2.638 2.576 2.638.366 0 .716-.079 1.03-.221v7.61c0 .58-.463 1.056-1.03 1.056-.566 0-1.03-.475-1.03-1.056v-4.75c0-1.166-.922-2.111-2.06-2.111h-1.03V2.111C10.302.945 9.38 0 8.241 0h-6.18C.922 0 0 .945 0 2.111V19h10.303v-7.917h1.545v5.278c0 1.457 1.154 2.639 2.576 2.639C15.846 19 17 17.818 17 16.361V6.333c0-.728-.288-1.388-.752-1.868zM8.242 7.389H2.061V2.11h6.181v5.28zm6.182 0c-.566 0-1.03-.475-1.03-1.056 0-.58.464-1.055 1.03-1.055.567 0 1.03.475 1.03 1.055s-.463 1.056-1.03 1.056z" fill="#262626"/></svg>