<svg width="235" height="46" fill="none" xmlns="http://www.w3.org/2000/svg"><g clip-path="url(#clip0_1565_20004)"><path d="M8.727 34.07a46.527 46.527 0 013.552 5.345c.906 1.753 1.284 2.942 1.946 5.054.406 1.166.773 1.514 1.562 1.514.86 0 1.25-.592 1.551-1.508.627-1.994 1.118-3.517 1.892-4.955 1.52-2.776 3.41-5.244 5.267-7.615.502-.671 3.752-4.581 5.214-7.666 0 0 1.798-3.39 1.798-8.122 0-4.427-1.773-7.498-1.773-7.498l-5.105 1.395-3.1 8.33-.767 1.148-.153.208-.204.26-.358.417-.512.522-2.76 2.294-6.902 4.066-1.148 6.811z" fill="#34A853"/><path d="M1.605 23.67c1.685 3.924 4.933 7.375 7.131 10.403l11.673-14.107s-1.644 2.194-4.627 2.194c-3.323 0-6.008-2.707-6.008-6.12 0-2.34 1.38-3.949 1.38-3.949l-7.923 2.167-1.626 9.411z" fill="#FBBC04"/><path d="M20.54.717c3.878 1.275 7.196 3.952 9.203 7.9L20.414 19.96s1.38-1.637 1.38-3.963c0-3.493-2.883-6.103-5.997-6.103-2.945 0-4.637 2.19-4.637 2.19V4.94L20.54.717z" fill="#4285F4"/><path d="M3.742 5.728C6.058 2.902 10.132-.009 15.75-.009c2.725 0 4.778.73 4.778.73l-9.38 11.369H4.504l-.76-6.362z" fill="#1A73E8"/><path d="M1.604 23.67s-1.55-3.096-1.55-7.582c0-4.239 1.616-7.944 3.689-10.36l7.411 6.363-9.55 11.579z" fill="#EA4335"/><path d="M161.079 37.294V13.122h3.044l8.241 14.72h.133l8.24-14.72h3.045v24.173h-3.045V22.947l.133-4.052h-.133l-7.411 13.268h-1.787l-7.411-13.268h-.133l.133 4.052v14.348h-3.049zm31.604.507c-1.72 0-3.161-.507-4.318-1.52-1.157-1.012-1.737-2.351-1.737-4.017 0-1.809.682-3.213 2.051-4.237 1.369-1.025 3.055-1.536 5.053-1.536 1.788 0 3.254.337 4.402 1.013v-.473c0-1.216-.408-2.189-1.223-2.92-.816-.73-1.82-1.097-3.013-1.097a4.66 4.66 0 00-2.398.633 3.263 3.263 0 00-1.472 1.755l-2.78-1.215c.375-.99 1.115-1.899 2.217-2.751 1.102-.852 2.558-1.266 4.368-1.266 2.074 0 3.794.62 5.162 1.857 1.368 1.237 2.052 2.982 2.052 5.234v10.002h-2.912v-2.297h-.133c-1.214 1.899-2.99 2.835-5.319 2.835zm.496-2.835c1.257 0 2.398-.48 3.425-1.435 1.027-.955 1.539-2.08 1.539-3.391-.86-.721-2.151-1.081-3.871-1.081-1.479 0-2.594.325-3.343.98-.749.653-1.126 1.417-1.126 2.295 0 .81.343 1.451 1.026 1.924.684.473 1.467.71 2.349.71l.001-.002zm19.276 2.835c-1.235 0-2.344-.271-3.325-.81-.98-.54-1.715-1.216-2.198-2.026h-.133l.133 2.295v7.293h-3.045V20.719h2.913v2.295h.133c.485-.81 1.218-1.485 2.199-2.026.98-.54 2.09-.81 3.325-.81 2.095 0 3.905.844 5.427 2.532 1.522 1.689 2.284 3.78 2.284 6.28 0 2.499-.763 4.592-2.284 6.28-1.521 1.687-3.332 2.532-5.427 2.532l-.002-.001zm-.497-2.835c1.413 0 2.624-.547 3.64-1.628 1.016-1.082 1.523-2.538 1.523-4.339 0-1.8-.507-3.256-1.523-4.339-1.015-1.082-2.228-1.628-3.64-1.628-1.433 0-2.653.54-3.657 1.621-1.003 1.08-1.504 2.533-1.504 4.355 0 1.823.502 3.274 1.504 4.355 1.003 1.08 2.223 1.62 3.657 1.62v-.017zm16.3 2.835c-1.809 0-3.304-.45-4.485-1.35a8.015 8.015 0 01-2.597-3.377l2.713-1.148c.86 2.08 2.328 3.105 4.402 3.105.949 0 1.727-.214 2.334-.633.606-.42.91-.99.91-1.688 0-1.08-.739-1.813-2.218-2.194l-3.276-.81c-1.037-.27-2.018-.782-2.945-1.535-.926-.754-1.39-1.773-1.39-3.055 0-1.462.634-2.65 1.902-3.563 1.269-.914 2.775-1.368 4.517-1.368 1.434 0 2.713.332 3.839.995a5.583 5.583 0 012.416 2.853l-2.648 1.114c-.594-1.463-1.831-2.194-3.706-2.194-.904 0-1.667.192-2.283.573-.616.382-.926.901-.926 1.554 0 .945.709 1.586 2.151 1.925l3.209.776c1.522.36 2.647.98 3.375 1.857.728.877 1.092 1.868 1.092 2.971 0 1.486-.595 2.714-1.787 3.714s-2.724 1.485-4.61 1.485l.011-.007zM70.86 22.882H58.372v3.78h8.865c-.437 5.3-4.76 7.562-8.841 7.562a9.569 9.569 0 01-3.77-.756 9.725 9.725 0 01-3.189-2.184 9.95 9.95 0 01-2.112-3.273 10.107 10.107 0 01-.707-3.852c0-5.722 4.342-10.13 9.787-10.13 4.203 0 6.676 2.734 6.676 2.734l2.595-2.74s-3.33-3.781-9.404-3.781c-7.733 0-13.717 6.66-13.717 13.852 0 7.048 5.63 13.922 13.915 13.922 7.287 0 12.625-5.094 12.625-12.626 0-1.588-.227-2.507-.227-2.507h-.008zm10.253-2.689c-5.124 0-8.797 4.086-8.797 8.853 0 4.837 3.563 9 8.866 9 4.793 0 8.72-3.738 8.72-8.897 0-5.912-4.568-8.958-8.78-8.958l-.01.002zm.05 3.507c2.52 0 4.908 2.078 4.908 5.426 0 3.278-2.378 5.418-4.92 5.418-2.793 0-4.996-2.282-4.996-5.442 0-3.091 2.177-5.401 5.007-5.401l.001-.001zm18.989-3.507c-5.124 0-8.796 4.086-8.796 8.853 0 4.837 3.562 9 8.865 9 4.794 0 8.72-3.738 8.72-8.897 0-5.912-4.568-8.958-8.78-8.958l-.009.002zm.05 3.507c2.521 0 4.908 2.078 4.908 5.426 0 3.278-2.378 5.418-4.92 5.418-2.793 0-4.996-2.282-4.996-5.442 0-3.091 2.177-5.401 5.008-5.401V23.7zm18.695-3.507c-4.703 0-8.401 4.203-8.401 8.92 0 5.372 4.286 8.936 8.319 8.936 2.493 0 3.819-1.01 4.799-2.17v1.76c0 3.079-1.833 4.924-4.61 4.924-2.673 0-4.012-2.028-4.479-3.178l-3.362 1.434c1.193 2.573 3.594 5.258 7.871 5.258 4.676 0 8.241-3.005 8.241-9.316V20.725h-3.669v1.512c-1.127-1.239-2.67-2.048-4.716-2.048l.007.004zm.341 3.5c2.306 0 4.673 2.008 4.673 5.439 0 3.487-2.362 5.409-4.725 5.409-2.507 0-4.84-2.077-4.84-5.377 0-3.436 2.422-5.471 4.892-5.471zm24.41-3.5c-4.436 0-8.163 3.6-8.163 8.915 0 5.622 4.152 8.958 8.588 8.958 3.703 0 5.976-2.067 7.33-3.918l-3.014-2.053c-.784 1.242-2.097 2.458-4.286 2.458-2.461 0-3.591-1.375-4.291-2.706l11.732-4.974-.609-1.448c-1.134-2.85-3.778-5.23-7.269-5.23l-.018-.002zm.152 3.433c1.6 0 2.749.869 3.239 1.907l-7.835 3.341c-.337-2.587 2.063-5.247 4.597-5.247h-.001zm-13.919 13.908h3.853v-26.32h-3.853v26.32z" fill="#767676"/></g><defs><clipPath id="clip0_1565_20004"><path fill="#fff" d="M0 0h234.6v46H0z"/></clipPath></defs></svg>