<svg width="101" height="39" fill="none" xmlns="http://www.w3.org/2000/svg"><path fill-rule="evenodd" clip-rule="evenodd" d="M20.334 38.118c6.684-.998 10.83-10.321 9.262-20.823C28.027 6.793 21.337-.911 14.653.087 7.968 1.086 3.822 10.41 5.39 20.91c1.569 10.502 8.26 18.207 14.944 17.208zm3.358-5.727c4.413-.959 6.629-8.005 4.95-15.74-1.68-7.734-6.62-13.227-11.033-12.268-4.413.958-6.629 8.005-4.949 15.74 1.68 7.733 6.62 13.226 11.032 12.268z" fill="#000"/><path fill-rule="evenodd" clip-rule="evenodd" d="M23.241 29.902c3.618-.797 5.594-6.644 4.413-13.06-1.182-6.414-5.073-10.968-8.69-10.17-3.62.797-5.595 6.644-4.413 13.06 1.181 6.414 5.072 10.968 8.69 10.17zm1.656-3.614c2.38-.71 3.371-5.105 2.215-9.815-1.156-4.71-4.023-7.952-6.402-7.241-2.38.71-3.372 5.105-2.215 9.815 1.156 4.71 4.022 7.952 6.402 7.241z" fill="#000"/><ellipse cx="19.879" cy="18.189" rx="3.263" ry="4.999" transform="rotate(-6.91 19.88 18.189)" fill="#000"/><path fill-rule="evenodd" clip-rule="evenodd" d="M30.505 20.731c.178 5.867-1.333 11.13-3.962 14.599 3.195-1.338 5.409-4.71 4.847-8.552l-.885-6.047zM7.772 31.69l-2.008-.585C.17 29.471-1.858 22.599 1.954 18.19l2.162-2.501a31.047 31.047 0 00.212 5.32c.505 4.032 1.737 7.693 3.444 10.68zM21.102.783c3.693 2.321 6.797 6.962 8.353 12.774l-.87-5.938c-.6-4.099-3.943-6.625-7.484-6.836z" fill="#CA0100"/><path d="M40.77 14.661c.202-1.102.576-2.065 1.12-2.888.545-.823 1.198-1.457 1.958-1.9a4.816 4.816 0 012.432-.665c.734 0 1.342.146 1.824.437.481.291.817.684 1.007 1.178l.266-1.482H53.1L51.22 20h-3.724l.266-1.482a3.9 3.9 0 01-1.444 1.178 4.435 4.435 0 01-1.976.437c-1.115 0-2.008-.367-2.68-1.102-.67-.747-1.006-1.76-1.006-3.04 0-.418.038-.861.114-1.33zm7.676 0a2.72 2.72 0 00.057-.532c0-.532-.152-.944-.456-1.235-.292-.291-.672-.437-1.14-.437-.558 0-1.058.196-1.501.589-.444.38-.722.918-.836 1.615a2.81 2.81 0 00-.057.551c0 .532.145.944.437 1.235.304.291.69.437 1.159.437.557 0 1.057-.196 1.5-.589.444-.393.723-.937.837-1.634zm18.082-5.32L64.628 20h-3.724l.266-1.52a4.932 4.932 0 01-1.54 1.178 4.435 4.435 0 01-1.975.437c-1.052 0-1.869-.298-2.451-.893-.583-.595-.874-1.425-.874-2.489 0-.367.038-.76.114-1.178l1.083-6.194h3.724l-1.007 5.719a2.19 2.19 0 00-.057.494c0 .456.133.817.399 1.083.266.253.627.38 1.083.38.532 0 .982-.165 1.349-.494.367-.33.614-.785.74-1.368l1.027-5.814h3.743zm5.634 6.669c-.012.063-.019.14-.019.228 0 .203.057.355.171.456.127.089.33.133.608.133h1.083L73.435 20h-1.634c-2.318 0-3.477-.975-3.477-2.926 0-.33.038-.703.114-1.121l.627-3.515h-1.31l.55-3.097h1.311l.456-2.584h3.743l-.456 2.584h1.92l-.552 3.097h-1.919l-.646 3.572zm8.301 4.123c-.924 0-1.748-.184-2.47-.551a4.005 4.005 0 01-1.653-1.558c-.392-.671-.589-1.457-.589-2.356 0-1.216.285-2.318.855-3.306A6.193 6.193 0 0179 10.044c1.014-.557 2.147-.836 3.401-.836.925 0 1.742.184 2.451.551.722.367 1.28.893 1.672 1.577.406.671.608 1.457.608 2.356 0 1.229-.291 2.337-.874 3.325a6.235 6.235 0 01-2.394 2.299c-1.013.545-2.147.817-3.4.817zm.57-3.211c.444 0 .836-.14 1.178-.418.355-.279.621-.64.798-1.083.19-.443.285-.9.285-1.368 0-.532-.139-.937-.418-1.216-.266-.279-.614-.418-1.045-.418-.456 0-.855.14-1.197.418a2.88 2.88 0 00-.779 1.083 3.701 3.701 0 00-.266 1.387c0 .532.133.937.4 1.216.265.266.614.399 1.044.399zm11.585 3.211c-.886 0-1.678-.133-2.375-.399-.696-.266-1.24-.64-1.634-1.121a2.643 2.643 0 01-.589-1.691c0-.114.013-.285.038-.513h3.591c-.012.355.095.627.323.817.228.19.545.285.95.285.317 0 .577-.063.78-.19.215-.127.322-.291.322-.494 0-.24-.133-.424-.399-.551-.266-.14-.709-.31-1.33-.513a15.7 15.7 0 01-1.786-.665 3.558 3.558 0 01-1.235-.95c-.342-.418-.513-.956-.513-1.615 0-.633.184-1.203.551-1.71.38-.507.912-.9 1.596-1.178.684-.291 1.476-.437 2.375-.437.963 0 1.793.165 2.49.494.709.317 1.234.76 1.576 1.33a3.18 3.18 0 01.475 1.9H94.48c.013-.342-.088-.608-.304-.798-.215-.203-.525-.304-.93-.304-.292 0-.533.063-.723.19-.19.127-.285.291-.285.494 0 .24.133.43.4.57.278.14.74.317 1.386.532.71.228 1.299.456 1.767.684.482.215.893.526 1.235.931.342.393.513.9.513 1.52 0 1.051-.456 1.881-1.368 2.489-.912.595-2.096.893-3.553.893z" fill="#000"/><path d="M40.324 26.8c.08-.453.24-.848.48-1.184.245-.341.547-.605.904-.792.357-.187.744-.28 1.16-.28.539 0 .957.13 1.256.392.304.261.472.624.504 1.088h-.784a.889.889 0 00-.328-.632c-.187-.155-.44-.232-.76-.232-.416 0-.779.144-1.088.432-.304.283-.501.685-.592 1.208a3.03 3.03 0 00-.04.44c0 .39.104.69.312.904.208.208.485.312.832.312.32 0 .597-.075.832-.224.24-.15.424-.363.552-.64h.784a2.443 2.443 0 01-.888 1.08c-.4.267-.864.4-1.392.4-.55 0-.987-.157-1.312-.472-.32-.315-.48-.744-.48-1.288 0-.165.016-.336.048-.512zm4.86-.008c.08-.448.24-.84.48-1.176.245-.341.54-.605.887-.792.352-.187.726-.28 1.12-.28.384 0 .702.083.952.248a1.3 1.3 0 01.52.624l.144-.8h.736L49.247 29h-.736l.152-.816c-.192.256-.445.47-.76.64a2.202 2.202 0 01-1.04.248c-.341 0-.642-.072-.904-.216a1.543 1.543 0 01-.608-.632 1.988 1.988 0 01-.216-.944c0-.16.016-.323.048-.488zm3.72.008c.02-.112.031-.232.031-.36 0-.39-.117-.696-.352-.92-.23-.23-.522-.344-.88-.344-.272 0-.533.064-.784.192a1.8 1.8 0 00-.632.56 2.083 2.083 0 00-.352.864 1.965 1.965 0 00-.032.368c0 .395.115.707.344.936.23.224.523.336.88.336.272 0 .53-.064.776-.192.25-.133.464-.323.64-.568.182-.25.302-.541.36-.872zm2.933-1.352a1.96 1.96 0 01.664-.672c.267-.16.571-.24.913-.24l-.136.752h-.192c-.38 0-.697.101-.953.304-.25.203-.418.544-.504 1.024L51.206 29h-.729l.777-4.384h.727l-.144.832zm4.12 1.344c.08-.448.24-.84.48-1.176.245-.341.544-.605.896-.792.352-.187.725-.28 1.12-.28.336 0 .637.08.904.24.266.155.456.36.568.616l.408-2.32h.736L60.02 29h-.736l.152-.824a2.184 2.184 0 01-1.792.896 1.84 1.84 0 01-.904-.216 1.597 1.597 0 01-.616-.632 1.988 1.988 0 01-.216-.944c0-.16.016-.323.048-.488zm3.72.008c.021-.112.032-.232.032-.36 0-.39-.118-.696-.352-.92-.23-.23-.523-.344-.88-.344a1.7 1.7 0 00-.784.192 1.801 1.801 0 00-.632.56 2.085 2.085 0 00-.352.864 1.973 1.973 0 00-.032.368c0 .395.114.707.344.936.23.224.522.336.88.336.272 0 .53-.064.776-.192.25-.133.464-.323.64-.568a2.09 2.09 0 00.36-.872zm4.254-2.256c.368 0 .685.072.952.216.272.139.477.336.616.592.144.25.216.539.216.864 0 .112-.013.248-.04.408a2.817 2.817 0 01-.104.432h-3.504c-.01.107-.016.184-.016.232 0 .368.11.656.328.864.224.203.515.304.872.304.315 0 .59-.072.824-.216.24-.15.421-.347.544-.592h.784a2.438 2.438 0 01-.888 1.032c-.395.261-.853.392-1.376.392-.55 0-.992-.157-1.328-.472-.33-.32-.496-.755-.496-1.304 0-.155.016-.32.048-.496.08-.453.243-.85.488-1.192a2.531 2.531 0 012.08-1.064zm1.008 1.984c.016-.107.024-.205.024-.296 0-.341-.11-.605-.328-.792-.213-.187-.493-.28-.84-.28a1.58 1.58 0 00-1.016.368c-.304.24-.51.573-.616 1h2.776zm1.385.264c.08-.448.24-.84.48-1.176.245-.341.541-.605.888-.792.352-.187.725-.28 1.12-.28.384 0 .701.083.952.248a1.3 1.3 0 01.52.624l.144-.8h.736L70.388 29h-.736l.152-.816c-.192.256-.445.47-.76.64a2.202 2.202 0 01-1.04.248c-.341 0-.643-.072-.904-.216a1.543 1.543 0 01-.608-.632 1.988 1.988 0 01-.216-.944c0-.16.016-.323.048-.488zm3.72.008c.021-.112.032-.232.032-.36 0-.39-.117-.696-.352-.92-.23-.23-.523-.344-.88-.344-.272 0-.533.064-.784.192a1.801 1.801 0 00-.632.56 2.085 2.085 0 00-.352.864 1.973 1.973 0 00-.032.368c0 .395.115.707.344.936.23.224.523.336.88.336.272 0 .53-.064.776-.192.25-.133.464-.323.64-.568a2.09 2.09 0 00.36-.872zm3.35-3.72L72.346 29h-.728l1.048-5.92h.728zm2.873 1.464c.368 0 .685.072.952.216.272.139.477.336.616.592.144.25.216.539.216.864 0 .112-.013.248-.04.408a2.805 2.805 0 01-.104.432h-3.504c-.01.107-.016.184-.016.232 0 .368.11.656.328.864.224.203.515.304.872.304.315 0 .59-.072.824-.216.24-.15.421-.347.544-.592h.784a2.438 2.438 0 01-.888 1.032c-.395.261-.853.392-1.376.392-.55 0-.992-.157-1.328-.472-.33-.32-.496-.755-.496-1.304 0-.155.016-.32.048-.496.08-.453.243-.85.488-1.192a2.532 2.532 0 012.08-1.064zm1.008 1.984c.016-.107.024-.205.024-.296 0-.341-.11-.605-.328-.792-.213-.187-.493-.28-.84-.28a1.58 1.58 0 00-1.016.368c-.304.24-.51.573-.616 1h2.776zm2.633-1.08c.176-.288.397-.512.664-.672.266-.16.57-.24.912-.24l-.136.752h-.192c-.379 0-.696.101-.952.304-.25.203-.419.544-.504 1.024L79.276 29h-.728l.776-4.384h.728l-.144.832zm3.168 3.624c-.458 0-.834-.11-1.128-.328a1.042 1.042 0 01-.44-.88c0-.07.003-.12.008-.152h.712a.643.643 0 00.2.56c.16.144.39.216.688.216.299 0 .539-.056.72-.168a.548.548 0 00.28-.488.477.477 0 00-.224-.416 3.488 3.488 0 00-.688-.328 6.295 6.295 0 01-.672-.288 1.322 1.322 0 01-.448-.376 1.019 1.019 0 01-.184-.624c0-.245.07-.464.208-.656.144-.192.342-.339.592-.44.256-.107.547-.16.872-.16.448 0 .816.112 1.104.336.288.224.432.517.432.88 0 .07-.002.123-.008.16h-.696l.008-.096a.593.593 0 00-.248-.504c-.16-.128-.373-.192-.64-.192-.261 0-.477.059-.648.176a.55.55 0 00-.248.472c0 .187.078.333.232.44.155.107.395.224.72.352.272.107.49.205.656.296.166.085.307.205.424.36.118.155.176.35.176.584 0 .256-.077.48-.232.672-.15.192-.357.339-.624.44a2.53 2.53 0 01-.904.152zm5.604-4.536c.437 0 .79.123 1.056.368.267.24.4.59.4 1.048 0 .17-.013.325-.04.464L89.64 29h-.72l.44-2.48a1.88 1.88 0 00.032-.352c0-.325-.09-.573-.272-.744-.176-.17-.424-.256-.744-.256-.384 0-.712.12-.984.36-.267.24-.44.59-.52 1.048v-.016L86.44 29h-.728l1.048-5.92h.728l-.384 2.168c.181-.224.41-.397.688-.52a2.13 2.13 0 01.888-.192zm3.421-.632a.417.417 0 01-.296-.112.417.417 0 01-.112-.296c0-.16.059-.296.176-.408a.56.56 0 01.408-.176.4.4 0 01.296.112.4.4 0 01.112.296.57.57 0 01-.176.416.573.573 0 01-.408.168zm.232.712L91.557 29h-.728l.776-4.384h.728zm1.825.808c.192-.25.445-.459.76-.624a2.13 2.13 0 011.032-.256c.341 0 .642.072.904.216.267.139.472.341.616.608.144.261.216.57.216.928 0 .155-.016.32-.048.496a2.92 2.92 0 01-.488 1.184c-.24.347-.536.616-.888.808a2.244 2.244 0 01-1.104.288c-.374 0-.688-.083-.944-.248a1.503 1.503 0 01-.544-.632l-.504 2.888h-.728l1.136-6.464h.728l-.144.808zm2.736 1.368c.021-.112.032-.235.032-.368 0-.39-.115-.693-.344-.912-.23-.224-.525-.336-.888-.336-.267 0-.526.067-.776.2a1.82 1.82 0 00-.648.568 2.08 2.08 0 00-.352.856 1.973 1.973 0 00-.032.368c0 .39.115.699.344.928.234.224.53.336.888.336.272 0 .53-.064.776-.192.25-.133.464-.323.64-.568a2.09 2.09 0 00.36-.88z" fill="#CA0100"/></svg>