<svg width="23" height="24" fill="none" xmlns="http://www.w3.org/2000/svg"><ellipse cx="11.5" cy="11.774" rx="11.5" ry="11.486" fill="#CA0100"/><g clip-path="url(#clip0_1944_23132)"><path d="M11.5 6.28a3.986 3.986 0 00-3.984 3.98c0 2.722 3.565 6.72 3.716 6.888a.36.36 0 00.534 0c.152-.169 3.717-4.166 3.717-6.889A3.986 3.986 0 0011.5 6.28zm0 5.981a2.005 2.005 0 01-2.005-2.002 2.005 2.005 0 014.009 0c0 1.104-.9 2.002-2.005 2.002z" fill="#fff"/></g><defs><clipPath id="clip0_1944_23132"><path fill="#fff" transform="translate(6 6.28)" d="M0 0h11v10.987H0z"/></clipPath></defs></svg>