<svg width="23" height="23" fill="none" xmlns="http://www.w3.org/2000/svg"><ellipse cx="11.5" cy="11.486" rx="11.5" ry="11.486" fill="#CA0100"/><g clip-path="url(#clip0_1944_23120)"><path d="M15.798 14.104l-1.39-1.39a.725.725 0 00-1.021.02l-.7.7-.139-.078c-.442-.245-1.047-.58-1.684-1.218-.639-.639-.975-1.245-1.22-1.687l-.076-.135.47-.47.23-.23a.724.724 0 00.02-1.023l-1.39-1.39a.724.724 0 00-1.022.02l-.392.393.01.011c-.13.168-.24.36-.322.57a2.36 2.36 0 00-.144.577c-.183 1.521.512 2.912 2.399 4.799 2.608 2.608 4.71 2.41 4.8 2.401a2.348 2.348 0 001.147-.467l.009.008.397-.389a.725.725 0 00.018-1.022z" fill="#fff"/></g><defs><clipPath id="clip0_1944_23120"><path fill="#fff" transform="translate(7 6.991)" d="M0 0h9v8.989H0z"/></clipPath></defs></svg>