<svg width="19" height="16" fill="none" xmlns="http://www.w3.org/2000/svg"><path d="M18.208 4.8h-1.25c-.35 0-.66.234-.759.573L15.43 8h-.085l-.342-1.05a.793.793 0 00-.752-.55h-1.583v-.8c0-.442-.354-.8-.792-.8h-1.583V4h.791a.796.796 0 00.792-.8V.8c0-.442-.354-.8-.792-.8H4.75a.796.796 0 00-.792.8v2.4c0 .442.354.8.792.8h.792v.8H3.167a.796.796 0 00-.792.8v3.2h-.792V8c0-.442-.354-.8-.791-.8A.796.796 0 000 8v3.2c0 .442.354.8.792.8a.796.796 0 00.791-.8v-.8h.792V12c0 .118.026.235.077.342l1.125 2.4a.79.79 0 00.715.458h9.542a.79.79 0 00.68-.392l.709-1.208h.26l.738 1.894c.12.305.413.506.737.506h1.25a.796.796 0 00.792-.8V5.6c0-.442-.354-.8-.792-.8z" fill="#262626"/></svg>