<svg width="40" height="24" fill="none" xmlns="http://www.w3.org/2000/svg"><rect width="40" height="24" rx="4" fill="#55BC6B"/><path d="M14.941 14.225h1.973v1.474h-1.973V19h-1.816v-3.3H6.65v-1.065l6.368-9.854h1.923v9.444zm-6.24 0h4.424V7.252l-.215.39-4.209 6.583zm10.069 3.828c0-.313.09-.573.273-.782.189-.208.469-.312.84-.312.37 0 .65.104.84.313.195.208.293.468.293.78 0 .3-.098.55-.293.753-.19.201-.47.302-.84.302-.371 0-.651-.1-.84-.302a1.08 1.08 0 01-.273-.752zm5.878-6.182l.723-7.09h7.285v1.67h-5.752l-.43 3.877c.697-.41 1.488-.615 2.374-.615 1.295 0 2.324.43 3.086 1.289.761.853 1.142 2.008 1.142 3.467 0 1.465-.397 2.62-1.191 3.467-.788.84-1.892 1.26-3.31 1.26-1.257 0-2.283-.349-3.077-1.046-.794-.696-1.247-1.66-1.357-2.89h1.709c.11.814.4 1.429.869 1.845.468.41 1.087.616 1.855.616.84 0 1.498-.287 1.973-.86.482-.573.723-1.364.723-2.373 0-.95-.26-1.712-.782-2.285-.514-.58-1.2-.869-2.06-.869-.788 0-1.407.173-1.856.518l-.478.39-1.446-.37z" fill="#fff"/></svg>