<svg width="16" height="18" fill="none" xmlns="http://www.w3.org/2000/svg"><path d="M9.867 14.433a2.567 2.567 0 105.133 0V9.385a2.567 2.567 0 10-5.133 0v5.048zm-8.867 0a2.567 2.567 0 105.133 0V3.567a2.567 2.567 0 00-5.133 0v10.866z" fill="#CA0100"/><path d="M9.867 14.433A2.567 2.567 0 0012.433 17v0A2.567 2.567 0 0015 14.433V9.385a2.567 2.567 0 00-2.567-2.567v0a2.567 2.567 0 00-2.566 2.567v5.048zm-8.867 0A2.567 2.567 0 003.567 17v0a2.567 2.567 0 002.566-2.567V3.567A2.567 2.567 0 003.567 1v0A2.567 2.567 0 001 3.567v10.866z" stroke="#CA0100" stroke-width="2" stroke-linecap="round" stroke-linejoin="round"/></svg>