<svg width="93" height="19" fill="none" xmlns="http://www.w3.org/2000/svg"><path d="M8.549 2.927c.3-.921 1.603-.921 1.902 0l.957 2.946a1 1 0 00.951.691h3.098c.97 0 1.372 1.24.588 1.81l-2.506 1.82a1 1 0 00-.363 1.118l.957 2.947c.3.92-.755 1.687-1.539 1.118l-2.506-1.821a1 1 0 00-1.176 0l-2.506 1.82c-.784.57-1.838-.196-1.539-1.117l.957-2.947a1 1 0 00-.363-1.118l-2.506-1.82c-.784-.57-.381-1.81.588-1.81H6.64a1 1 0 00.95-.69l.958-2.947zm18.505-.161c.308-.901 1.584-.901 1.892 0l1.068 3.122a1 1 0 00.946.676h3.341c.981 0 1.376 1.266.568 1.823l-2.613 1.804a1 1 0 00-.378 1.147l1.019 2.979c.312.912-.721 1.694-1.515 1.146l-2.814-1.942a1 1 0 00-1.136 0l-2.814 1.942c-.794.548-1.827-.234-1.515-1.146l1.02-2.98a1 1 0 00-.379-1.146l-2.613-1.804c-.808-.557-.413-1.823.568-1.823h3.341a1 1 0 00.946-.676l1.068-3.122zm18.495.161c.3-.921 1.603-.921 1.902 0l.957 2.946a1 1 0 00.951.691h3.098c.97 0 1.372 1.24.588 1.81l-2.506 1.82a1 1 0 00-.363 1.118l.957 2.947c.3.92-.755 1.687-1.539 1.118l-2.506-1.821a1 1 0 00-1.176 0l-2.506 1.82c-.784.57-1.838-.196-1.539-1.117l.957-2.947a1 1 0 00-.363-1.118l-2.506-1.82c-.784-.57-.381-1.81.588-1.81h3.098a1 1 0 00.95-.69l.958-2.947zm18.505-.161c.308-.901 1.584-.901 1.892 0l1.068 3.122a1 1 0 00.946.676h3.341c.981 0 1.376 1.266.568 1.823l-2.613 1.804a1 1 0 00-.378 1.147l1.019 2.979c.312.912-.721 1.694-1.515 1.146l-2.814-1.942a1 1 0 00-1.136 0l-2.814 1.942c-.794.548-1.827-.234-1.515-1.146l1.02-2.98a1 1 0 00-.379-1.146l-2.613-1.804c-.808-.557-.413-1.823.568-1.823h3.341a1 1 0 00.946-.676l1.068-3.122z" fill="#FFB800"/><path d="M82.549 2.927c.3-.921 1.603-.921 1.902 0l.957 2.946a1 1 0 00.951.691h3.098c.97 0 1.372 1.24.588 1.81l-2.506 1.82a1 1 0 00-.363 1.118l.957 2.947c.3.92-.755 1.687-1.539 1.118l-2.506-1.821a1 1 0 00-1.176 0l-2.506 1.82c-.784.57-1.838-.196-1.539-1.117l.957-2.947a1 1 0 00-.363-1.118l-2.506-1.82c-.784-.57-.381-1.81.588-1.81h3.098a1 1 0 00.95-.69l.958-2.947z" fill="#E1E1E1"/></svg>