<svg width="31" height="31" fill="none" xmlns="http://www.w3.org/2000/svg"><circle cx="15.5" cy="15.5" r="15.5" fill="#CA0100"/><path d="M23.689 19.723l-1.774-1.183-1.577-1.051a.698.698 0 00-.938.152l-.975 1.255a.695.695 0 01-.887.184c-.663-.369-1.445-.715-3.173-2.445-1.727-1.73-2.076-2.51-2.445-3.173a.695.695 0 01.184-.887l1.255-.975a.699.699 0 00.152-.938l-1.019-1.529-1.215-1.822a.698.698 0 00-.94-.211l-1.401.84a1.712 1.712 0 00-.777 1.006c-.384 1.397-.46 4.479 4.478 9.417 4.939 4.94 8.02 4.862 9.417 4.478.423-.12.783-.398 1.006-.777l.84-1.401a.698.698 0 00-.211-.94z" fill="#fff"/></svg>